<svg width="47" height="15" xmlns="http://www.w3.org/2000/svg">
 <!-- Created with Method Draw - http://github.com/duopixel/Method-Draw/ -->
 <g>
  <title>background</title>
  <rect fill="#fff" id="canvas_background" height="34" width="98" y="-1" x="-1"/>
  <g display="none" overflow="visible" y="0" x="0" height="100%" width="100%" id="canvasGrid">
   <rect fill="url(#gridpattern)" stroke-width="0" y="0" x="0" height="100%" width="100%"/>
  </g>
 </g>
 <g>
  <title>Layer 1</title>
  <path d="m6.18742,2.7986c0,0 -0.00212,0.06269 -0.12706,0.38119c-0.32316,0.82379 -0.71849,1.77147 -1.14358,2.92249c-0.4664,1.26285 -0.83969,2.34674 -1.14358,3.43075c-0.26623,0.94967 -0.45215,1.64979 -0.57179,2.09657c-0.06776,0.25304 -0.12706,0.44473 -0.12706,0.50826c0,0 -0.01861,0.01861 -0.06353,0.06353c-0.04492,0.04492 0,0.12707 0,0.12707c0,0.06353 0,0.06353 0,0.06353l0,0l0,-0.06353" id="svg_11" fill-opacity="null" stroke-opacity="null" stroke-width="1.5" stroke="#000" fill="none"/>
  <path d="m6.50508,3.11626c0,0 0.10229,0.17059 0.31766,0.63532c0.31267,0.6747 0.59773,1.64303 0.95299,2.73189c0.41147,1.26117 0.77187,2.34737 1.08005,3.24015c0.26222,0.75964 0.39058,1.26705 0.50826,1.58831c0.0691,0.18865 0.04894,0.25583 0.06353,0.31766c0.03264,0.13826 0.06353,0.1906 0.06353,0.25413c0,0.12706 0,0.1906 0,0.25413l0,0" id="svg_12" fill-opacity="null" stroke-opacity="null" stroke-width="1.5" stroke="#000" fill="none"/>
  <path d="m3.07433,8.89771c0,0 0.12341,-0.01305 1.46125,-0.38119c2.15442,-0.59286 3.93901,-1.01652 5.08259,-1.27065l0.38119,-0.06353" id="svg_13" fill-opacity="null" stroke-opacity="null" stroke-width="1.5" stroke="#000" fill="none"/>
  <path d="m13.68424,5.91169c0,0 -0.13163,-0.01962 -0.44473,0.06353c-0.58253,0.1547 -1.10755,0.48609 -1.46125,0.95299c-0.27664,0.36518 -0.34798,0.75217 -0.06353,1.14358c0.39703,0.54633 1.14868,0.88073 1.58831,1.14358c0.51443,0.30758 0.82592,0.49326 0.82592,0.63532c0,0.14206 -0.17306,0.39534 -0.38119,0.63532c-0.23548,0.27151 -0.57179,0.44473 -0.82592,0.57179l-0.1906,0.12706l-0.12706,0.06353" id="svg_15" fill-opacity="null" stroke-opacity="null" stroke-width="1.5" stroke="#000" fill="none"/>
  <path d="m16.67027,6.86468c0.06353,0.25413 0.19511,0.82556 0.25413,1.58831c0.06879,0.88906 0.12706,1.58831 0.12706,2.1601c0,0.50826 0,0.88945 0,1.08005c0,0.06353 0,0.06353 0,0.06353l0.06353,-0.12707" id="svg_16" fill-opacity="null" stroke-opacity="null" stroke-width="1.5" stroke="#000" fill="none"/>
  <path d="m16.7338,3.94219c0,0 -0.02915,0.04405 -0.06353,0.12706c-0.04863,0.11739 0,0.25413 0,0.38119c0,0 0,0 0,0c0,0 0,0 0,0.06353l0,0l0,0.06353" id="svg_17" fill-opacity="null" stroke-opacity="null" stroke-width="1.5" stroke="#000" fill="none"/>
  <path d="m19.78335,6.80114c0,0.06353 0.07081,0.31698 0.12707,0.95299c0.07298,0.82514 0.09587,1.78215 0.1906,2.5413c0.04785,0.38348 0.06353,0.63532 0.06353,0.69886c0,0 0,0.06353 0,0.06353c0,0 0,0 0,0c0,0.12706 -0.06353,0.25413 -0.06353,0.31766l0,0.06353l0,0l0,0" id="svg_18" fill-opacity="null" stroke-opacity="null" stroke-width="1.5" stroke="#000" fill="none"/>
  <path d="m20.73634,7.11881c0,-0.06353 0.03343,-0.20803 0.1906,-0.44473c0.324,-0.48797 0.93918,-0.86205 1.39771,-1.01652c0.24824,-0.08363 0.57665,-0.13064 0.76239,0.12706c0.23494,0.32597 0.31964,1.07992 0.38119,2.03304c0.06564,1.01639 0.06353,2.09657 0.12707,2.92249l0,0.44473l0,0.12707" id="svg_20" fill-opacity="null" stroke-opacity="null" stroke-width="1.5" stroke="#000" fill="none"/>
  <path d="m28.67789,5.27637c-0.06353,-0.06353 -0.11587,-0.09443 -0.25413,-0.12706c-0.12366,-0.02919 -0.31956,-0.03248 -0.57179,-0.06353c-0.25999,-0.03201 -0.70026,-0.07389 -1.20712,0c-0.38241,0.05574 -0.64931,0.11403 -0.82592,0.31766c-0.20813,0.23998 -0.41843,0.62744 -0.50826,1.14358c-0.10948,0.62904 -0.06622,1.29717 0.1906,1.84244c0.25539,0.54223 0.51851,0.87651 0.76239,1.08005c0.10907,0.09103 0.25413,0.12706 0.38119,0.12706c0.1906,0 0.57466,-0.0539 1.01652,-0.1906c0.38387,-0.11875 0.81194,-0.25261 1.08005,-0.50826c0.33157,-0.31615 0.44473,-0.82592 0.57179,-1.33418c0.12707,-0.50826 0.12707,-0.88945 0.12707,-1.20712c0,-0.31766 0,-0.50826 0,-0.69886c0,-0.12707 0,-0.1906 0,-0.25413c0,0 0,0.06353 0,0.12706c0,0.25413 -0.06839,0.6349 -0.12707,1.33418c-0.06927,0.82546 -0.06353,1.77891 -0.06353,2.79543c0,0.76239 0.02852,1.15721 -0.06353,1.46125c-0.06638,0.21924 -0.21031,0.42687 -0.3812,0.63532c-0.14523,0.17715 -0.31014,0.32975 -0.50826,0.44473c-0.24574,0.14261 -0.57179,0.25413 -0.95299,0.44473c-0.25413,0.12706 -0.44637,0.17024 -0.57179,0.1906c-0.19831,0.03218 -0.44473,0.06353 -0.69886,0.06353c-0.12707,0 -0.31766,-0.06353 -0.44473,-0.06353c-0.06353,0 -0.08214,-0.01861 -0.12707,-0.06353c-0.04492,-0.04492 -0.06353,0 -0.06353,-0.06353c0,-0.06353 0,-0.12706 0,-0.12706c0,0 0,-0.06353 0,-0.06353c0,0 0,0 0,0l0,0" id="svg_33" fill-opacity="null" stroke-opacity="null" stroke-width="1.5" stroke="#000" fill="none"/>
  <path d="m32.4263,7.05527c0,0 0.12496,-0.01424 0.50826,-0.06353c0.69601,-0.08951 1.69118,-0.16029 2.5413,-0.57179c0.53948,-0.26114 0.82417,-0.61293 0.88945,-0.88945c0.02919,-0.12367 -0.00959,-0.28174 -0.12707,-0.44473c-0.18574,-0.2577 -0.61798,-0.49181 -1.08005,-0.63532c-0.30937,-0.09609 -0.57519,-0.15626 -0.69886,-0.12706c-0.27652,0.06528 -0.58633,0.30048 -0.88945,0.57179c-0.40169,0.35953 -0.75498,0.83069 -1.20712,1.52478c-0.37509,0.57581 -0.66703,1.07709 -0.69886,1.58831c-0.03553,0.57069 -0.00814,1.41843 0.50826,2.09657c0.51783,0.68003 1.26645,1.04499 2.03304,1.14358c0.69601,0.08951 1.20352,0.05415 1.52478,-0.06353c0.18865,-0.0691 0.25413,-0.12706 0.25413,-0.12706l0,0" id="svg_34" fill-opacity="null" stroke-opacity="null" stroke-width="1.5" stroke="#000" fill="none"/>
  <path d="m38.08069,4.83164c0.06353,0.12706 0.16647,0.29663 0.25413,0.50826c0.12397,0.29929 0.22228,0.63194 0.25413,1.08005c0.04504,0.63373 0.03553,1.27175 0,1.84244c-0.03183,0.51122 -0.15877,1.01355 -0.1906,1.52478c-0.02763,0.44387 -0.06353,0.76239 -0.06353,1.01652c0,0.12706 -0.03089,0.1794 -0.06353,0.31766c-0.0146,0.06183 0,0.12706 0,0.1906c0,0.12706 0,0.12706 0,0.1906c0,0 0,-0.06353 0.06353,-0.1906l0.1906,-0.31766" id="svg_37" fill-opacity="null" stroke-opacity="null" stroke-width="1.5" stroke="#000" fill="none"/>
  <path d="m39.2878,6.67408c0,0 0.0163,-0.05063 0.06353,-0.12706c0.10562,-0.1709 0.23705,-0.52631 0.57179,-0.82592c0.30312,-0.27131 0.64088,-0.49517 0.95299,-0.63532c0.25919,-0.11639 0.3812,-0.1906 0.44473,-0.1906c0,0 0,0 0,0l0.06353,0l0,0l0,0" id="svg_38" fill-opacity="null" stroke-opacity="null" stroke-width="1.5" stroke="#000" fill="none"/>
  <path d="m44.05273,5.78463c0,0 -0.05234,-0.03089 -0.1906,-0.06353c-0.1855,-0.04379 -0.5154,-0.02878 -0.82592,0.06353c-0.32795,0.09749 -0.7123,0.2995 -0.88945,0.44473c-0.20845,0.17089 -0.34901,0.37348 -0.3812,0.57179c-0.03053,0.18814 0.05357,0.39682 0.44473,0.63532c0.55848,0.34053 1.20884,0.50075 1.77891,0.63532c0.25494,0.06018 0.3812,0.12706 0.44473,0.1906c0.06353,0.06353 0.12706,0.12706 0.12706,0.25413c0,0.06353 -0.04537,0.26758 -0.1906,0.44473c-0.22785,0.27793 -0.62037,0.54499 -1.20712,0.76239c-0.62197,0.23046 -1.20712,0.38119 -1.65184,0.50826l-0.19059,0l-0.06353,0.06353" id="svg_40" fill-opacity="null" stroke-opacity="null" stroke-width="1.5" stroke="#000" fill="none"/>
 </g>
</svg>
